Coordinates
version=1
nRows=22
nColumns=24
inDegrees=yes

Units are S.I. units (second, meters, Newtons, ...)
Angles are in degrees.

endheader
time	pelvis_tilt	pelvis_list	pelvis_rotation	pelvis_tx	pelvis_ty	pelvis_tz	hip_flexion_r	hip_adduction_r	hip_rotation_r	knee_angle_r	ankle_angle_r	subtalar_angle_r	mtp_angle_r	hip_flexion_l	hip_adduction_l	hip_rotation_l	knee_angle_l	ankle_angle_l	subtalar_angle_l	mtp_angle_l	lumbar_extension	lumbar_bending	lumbar_rotation
      0.74200000	     -3.28618752	      2.14595347	     10.56999379	      0.00000660	      0.98067826	      0.25319618	     32.40286754	     -5.25307020	     -7.17694754	     -0.70122096	     10.17638351	     -2.26791218	      7.70975769	    -18.80693048	      3.38150826	      8.58262450	     -8.56368847	     14.69645370	     -1.24891001	     -0.80249700	      0.42512035	     -5.24652556	     -7.63563896
      0.74616667	     -3.28318005	      2.05878065	     10.81026767	      0.00644160	      0.97991742	      0.25318978	     32.48724955	     -5.26246010	     -7.20591693	     -1.39615101	     10.27753483	     -2.62101879	      7.72128219	    -19.07153086	      3.12638808	      8.64566995	     -8.71164610	     14.43156138	     -1.18922050	     -0.80284216	      0.52410487	     -5.15361779	     -7.74481374
      0.75033333	     -3.28982697	      1.95355059	     11.03403199	      0.01294578	      0.97914348	      0.25327070	     32.55438359	     -5.22967002	     -7.08937099	     -2.04392474	     10.18672689	     -3.25454681	      7.76720819	    -19.31947299	      2.85098957	      8.66818777	     -8.86422682	     14.17287566	     -1.08912159	     -0.75989445	      0.63377934	     -5.06665874	     -8.10574716
      0.75450000	     -3.29245083	      1.85184194	     11.27414614	      0.01945255	      0.97840734	      0.25334339	     32.61356308	     -5.20468224	     -6.99808849	     -2.70603574	     10.03580330	     -3.91461088	      7.85056226	    -19.54083513	      2.57023311	      8.65278544	     -9.07337178	     13.91910042	     -0.93897475	     -0.66558340	      0.72589585	     -4.97311646	     -8.34879720
      0.75866667	     -3.29384072	      1.73624149	     11.49742160	      0.02602355	      0.97768353	      0.25347271	     32.67351834	     -5.15046070	     -6.89656110	     -3.38272773	      9.82768916	     -4.58610444	      7.97575517	    -19.76144574	      2.27501816	      8.61938198	     -9.27834796	     13.64739297	     -0.77735292	     -0.51448058	      0.82658748	     -4.87649028	     -8.58152017
      0.76283333	     -3.30043151	      1.61275797	     11.71590879	      0.03263703	      0.97697461	      0.25363027	     32.73650269	     -5.08039298	     -6.78592595	     -4.06390722	      9.55245558	     -5.28974444	      8.14221526	    -19.96655997	      1.97167692	      8.57316417	     -9.49511920	     13.33832741	     -0.62264030	     -0.30204060	      0.94722755	     -4.77259871	     -8.80861023
      0.76700000	     -3.27052517	      1.45988386	     11.91385638	      0.03931924	      0.97632141	      0.25382616	     32.76256696	     -4.96037185	     -6.69920285	     -4.74192256	      9.18238914	     -5.99184502	      9.72318291	    -20.20056953	      1.62857400	      8.43533862	     -9.71244714	     12.99018598	     -0.37462276	      1.80931540	      1.05468644	     -4.60132674	     -8.86044331
      0.77116667	     -3.30923496	      1.33178709	     12.11501762	      0.04600077	      0.97561531	      0.25405761	     32.87646510	     -4.87240712	     -6.60459528	     -5.46691039	      8.79484595	     -6.65789490	      9.76366034	    -20.35692808	      1.33192093	      8.41247570	     -9.94490303	     12.57882092	     -0.34701950	      1.88784662	      1.21593103	     -4.52287478	     -9.21412966
      0.77533333	     -3.31563176	      1.17776050	     12.30106603	      0.05273448	      0.97497607	      0.25434090	     32.94731650	     -4.73445774	     -6.48044640	     -6.16556442	      8.31034216	     -7.40948637	      9.84185444	    -20.53183555	      0.99968789	      8.32216441	    -10.19419834	     12.17647899	     -0.22898076	      2.03284880	      1.35754899	     -4.38503485	     -9.41798908
      0.77950000	     -3.31630419	      1.02004329	     12.47470659	      0.05949984	      0.97436895	      0.25468295	     33.01992328	     -4.57804373	     -6.35367846	     -6.87684953	      7.77247009	     -8.17316287	      9.98546141	    -20.70552812	      0.66091129	      8.21595330	    -10.44712707	     11.73193302	     -0.08174733	      2.29614393	      1.49920837	     -4.26898823	     -9.60248094
      0.78366667	     -3.35608480	      0.84117308	     12.63139506	      0.06629678	      0.97372906	      0.25504426	     33.15000166	     -4.39872700	     -6.23685290	     -7.61166452	      7.18576828	     -8.88927698	     10.12426327	    -20.81306636	      0.31835343	      8.08708130	    -10.74320186	     11.28189951	      0.00053618	      2.56043390	      1.69391590	     -4.09528142	     -9.78618463
      0.78783333	     -3.36672916	      0.64924185	     12.76850689	      0.07312877	      0.97315818	      0.25547771	     33.25661888	     -4.18207582	     -6.10985282	     -8.35419851	      6.55560501	     -9.61953615	     10.29320416	    -20.94586080	     -0.04263176	      7.93445837	    -11.03371438	     10.78313818	      0.10746064	      2.89406713	      1.85170741	     -3.92829772	     -9.94964386
      0.79200000	     -3.37128251	      0.45248798	     12.89532778	      0.07997558	      0.97262984	      0.25593321	     33.37521315	     -3.95814282	     -6.04485268	     -9.12714882	      5.86751352	    -10.23303517	     12.17403988	    -21.05971677	     -0.41350550	      7.70086849	    -11.35451855	     10.19651220	      0.29499662	      6.69984681	      2.02492935	     -3.75935085	    -10.02287444
      0.79616667	     -3.40295491	      0.25338650	     12.99853560	      0.08684442	      0.97208881	      0.25643502	     33.53933527	     -3.71689488	     -5.91368872	     -9.94027578	      5.26657871	    -10.86539320	     12.17724831	    -21.14991047	     -0.76139255	      7.56274461	    -11.67058153	      9.59041469	      0.27993441	      6.77502798	      2.22724368	     -3.57381270	    -10.21476274
      0.80033333	     -3.43353072	      0.03919125	     13.08869012	      0.09372753	      0.97159529	      0.25697914	     33.71073173	     -3.44949448	     -5.78276303	    -10.76337756	      4.61822583	    -11.48363377	     12.20591164	    -21.21388025	     -1.12419013	      7.37153702	    -12.02741859	      8.98399897	      0.34319692	      6.92804131	      2.42877188	     -3.38383648	    -10.33562396
      0.80450000	     -3.44930193	     -0.18795309	     13.15265059	      0.10063019	      0.97114011	      0.25757826	     33.88467510	     -3.14994972	     -5.64549705	    -11.61742612	      3.98505461	    -12.06368871	     12.25536155	    -21.28153488	     -1.49645536	      7.15052146	    -12.39715983	      8.35245481	      0.40929175	      7.15416733	      2.61435241	     -3.16938750	    -10.43810812
      0.80866667	     -3.39793391	     -0.44807785	     13.21460322	      0.10757086	      0.97082655	      0.25818968	     33.98806014	     -2.80419754	     -5.56697389	    -12.46891251	      3.36951936	    -12.59299799	     12.98190430	    -21.39575146	     -1.92727122	      6.83807827	    -12.78188169	      7.63127159	      0.60313396	     10.14381812	      2.73049527	     -2.89567257	    -10.47425725
      0.81283333	     -3.47505565	     -0.65433349	     13.22560033	      0.11447086	      0.97035225	      0.25887214	     34.27489888	     -2.51150507	     -5.40081631	    -13.43384354	      2.85143629	    -12.98290705	     12.98740012	    -21.36991269	     -2.23613039	      6.63145890	    -13.20878424	      6.89834893	      0.52354071	     10.24437213	      2.99457264	     -2.73268470	    -10.58900280
      0.81700000	     -3.47761009	     -0.89946814	     13.23028842	      0.12140894	      0.97003102	      0.25957799	     34.47220804	     -2.15600879	     -5.25109357	    -14.36912215	      2.32380811	    -13.41718172	     13.00416176	    -21.40221605	     -2.60572335	      6.36449646	    -13.65066848	      6.13917326	      0.54245868	     10.43964797	      3.17484825	     -2.49048940	    -10.65004095
      0.82116667	     -3.45357615	     -1.13716990	     13.20726957	      0.12837144	      0.96977454	      0.26030086	     34.66632640	     -1.79960400	     -5.15899032	    -15.37318744	      1.94693175	    -13.60523607	     13.01157112	    -21.46342042	     -2.96257116	      6.07948020	    -14.08601869	      5.31215335	      0.57752433	     10.53925785	      3.33483147	     -2.25093126	    -10.69520101
      0.82533333	     -3.44510103	     -1.40919019	     13.17902717	      0.13533422	      0.96953664	      0.26109139	     34.84592459	     -1.38198374	     -4.94196059	    -16.29049589	      1.41217152	    -14.14769495	     13.04196182	    -21.45513537	     -3.35326264	      5.74494864	    -14.61258551	      4.50407905	      0.58913676	     10.97700540	      3.49633410	     -1.96897611	    -10.71352444
      0.82950000	     -3.40390575	     -1.65064250	     13.13180577	      0.14228681	      0.96938247	      0.26186741	     35.02827152	     -1.00511299	     -4.86543186	    -17.31891912	      1.15930805	    -14.21057967	     13.04695187	    -21.48606084	     -3.70896520	      5.42745534	    -15.12583799	      3.59773821	      0.61271662	     11.06391215	      3.58461605	     -1.75067980	    -10.74825655
